<?xml version="1.0" standalone="no"?><!DOCTYPE svg PUBLIC "-//W3C//DTD SVG 1.1//EN" "http://www.w3.org/Graphics/SVG/1.1/DTD/svg11.dtd"><svg t="1617863846066" class="icon" viewBox="0 0 1024 1024" version="1.1" xmlns="http://www.w3.org/2000/svg" p-id="1815" xmlns:xlink="http://www.w3.org/1999/xlink" width="200" height="200"><defs><style type="text/css"></style></defs><path d="M85.504 853.504c-25.6 0-42.496-16.896-42.496-42.496V213.504c0-25.6 16.896-42.496 42.496-42.496s42.496 16.896 42.496 42.496v597.504c0 25.088-16.896 42.496-42.496 42.496z" p-id="1816"></path><path d="M938.496 853.504H85.504c-25.6 0-42.496-16.896-42.496-42.496 0-25.6 16.896-42.496 42.496-42.496h853.504c25.6 0 42.496 16.896 42.496 42.496 0 25.088-17.408 42.496-43.008 42.496zM640 612.864c-11.776 0-23.552-5.12-31.232-13.824L463.872 441.344l-139.776 104.96c-18.944 14.336-45.568 10.24-59.904-8.704-14.336-18.944-10.24-45.568 8.704-59.904l170.496-128c17.408-13.312 41.984-10.752 56.832 5.12l132.608 144.896 140.8-225.28c12.288-19.968 38.912-26.112 58.88-13.824 19.968 12.288 26.112 38.912 13.312 58.88l-170.496 272.896c-7.168 11.264-18.944 18.432-32.256 19.968-0.512 0.512-1.536 0.512-3.072 0.512z" p-id="1817"></path></svg>